# xmcd
#
# Track frame offsets:
# 150
# 17328
# 29398
# 41306
# 52556
# 62916
# 75326
# 88928
# 102916
# 113673
# 125140
# 136545
# 146548
# 162560
# 176477
# 186700
# 200395
# 211025
#
# Disc length: 2985 seconds
#
#
# Revision: 0
# Processed by: cddbd v1.5.1PL2 Copyright (c) Steve Scherf et al.
# Submitted via: FreeRIP 2.53 
#
DISCID=ea0ba712
DTITLE=Various Artist - Let's Go Country
DYEAR=1999
DGENRE=Country
TTITLE0=Bobby Bare - Sylvia's Mother
TTITLE1=Dave Dudley - Rollin' on - We Gone
TTITLE2=Ferlin Husky - Money Greases The Wheels
TTITLE3=Rick Johnson - You'd Better Take It
TTITLE4=Linda Manning - Bonjour Tristesse (Hello Sadness)
TTITLE5=Bobby Bare - The Year That Clanton Delaney Died
TTITLE6=Rick Johnson - I've Heard These Lines Before
TTITLE7=Dave Dudley - Morning Sun
TTITLE8=George Kent - I'm In A Bad Mood Night
TTITLE9=Buddy Meredith - A New Girl In Town
TTITLE10=Barbara Perry - I'll Hold You Closer Than Love
TTITLE11=Ronnie Rogers - The Fool On The Stool
TTITLE12=Rick Pilgreen - If I Had The Chance
TTITLE13=George Kent - Doogie Ray
TTITLE14=Dave Dudley - Truck Driving Son-Of-A-Gun
TTITLE15=Billy Grammer - The Hour Of Separation
TTITLE16=Bobby Lord - You Wouldn't Want Me Now
TTITLE17=Thomas Frank - Hey Billy My Old Friend
EXTD=
EXTT0=
EXTT1=
EXTT2=
EXTT3=
EXTT4=
EXTT5=
EXTT6=
EXTT7=
EXTT8=
EXTT9=
EXTT10=
EXTT11=
EXTT12=
EXTT13=
EXTT14=
EXTT15=
EXTT16=
EXTT17=
PLAYORDER=
